<svg xmlns="http://www.w3.org/2000/svg" xmlns:xlink="http://www.w3.org/1999/xlink" width="1183pt" height="995pt" viewBox="0.00 0.00 1182.64 995.40">
<g id="graph0" class="graph" transform="scale(1 1) rotate(0) translate(4 991.4)">
<title>package</title>
<polygon fill="white" stroke="none" points="-4,4 -4,-991.4 1178.64,-991.4 1178.64,4 -4,4"/>
<!-- CloseButtonListener -->
<g id="node1" class="node">
<title>CloseButtonListener</title>
<polygon fill="none" stroke="black" points="873.98,-836.5 873.98,-910.9 1147.89,-910.9 1147.89,-836.5 873.98,-836.5"/>
<text text-anchor="middle" x="1010.94" y="-894.3" font-family="Times,serif" font-size="14.00">CloseButtonListener</text>
<polyline fill="none" stroke="black" points="873.98,-886.1 1147.89,-886.1"/>
<text text-anchor="start" x="881.98" y="-869.5" font-family="Times,serif" font-size="14.00">+ CloseButtonListener(MainMenu, JFrame) : </text>
<polyline fill="none" stroke="black" points="873.98,-861.3 1147.89,-861.3"/>
<text text-anchor="start" x="881.98" y="-844.7" font-family="Times,serif" font-size="14.00">+ actionPerformed(ActionEvent) : void</text>
</g>
<!-- CloseWindowListener -->
<g id="node2" class="node">
<title>CloseWindowListener</title>
<polygon fill="none" stroke="black" points="474.93,-114.5 474.93,-188.9 758.94,-188.9 758.94,-114.5 474.93,-114.5"/>
<text text-anchor="middle" x="616.94" y="-172.3" font-family="Times,serif" font-size="14.00">CloseWindowListener</text>
<polyline fill="none" stroke="black" points="474.93,-164.1 758.94,-164.1"/>
<text text-anchor="start" x="482.93" y="-147.5" font-family="Times,serif" font-size="14.00">+ CloseWindowListener(MainMenu, JFrame) : </text>
<polyline fill="none" stroke="black" points="474.93,-139.3 758.94,-139.3"/>
<text text-anchor="start" x="482.93" y="-122.7" font-family="Times,serif" font-size="14.00">+ windowClosing(WindowEvent) : void</text>
</g>
<!-- EscapeMenuCloseListener -->
<g id="node3" class="node">
<title>EscapeMenuCloseListener</title>
<polygon fill="none" stroke="black" points="474.91,-0.5 474.91,-74.9 716.96,-74.9 716.96,-0.5 474.91,-0.5"/>
<text text-anchor="middle" x="595.94" y="-58.3" font-family="Times,serif" font-size="14.00">EscapeMenuCloseListener</text>
<polyline fill="none" stroke="black" points="474.91,-50.1 716.96,-50.1"/>
<text text-anchor="start" x="482.91" y="-33.5" font-family="Times,serif" font-size="14.00">+ EscapeMenuCloseListener() : </text>
<polyline fill="none" stroke="black" points="474.91,-25.3 716.96,-25.3"/>
<text text-anchor="start" x="482.91" y="-8.7" font-family="Times,serif" font-size="14.00">+ windowClosing(WindowEvent) : void</text>
</g>
<!-- GameArrowKeyListener -->
<g id="node4" class="node">
<title>GameArrowKeyListener</title>
<polygon fill="none" stroke="black" points="37.44,-722.5 37.44,-796.9 258.43,-796.9 258.43,-722.5 37.44,-722.5"/>
<text text-anchor="middle" x="147.94" y="-780.3" font-family="Times,serif" font-size="14.00">GameArrowKeyListener</text>
<polyline fill="none" stroke="black" points="37.44,-772.1 258.43,-772.1"/>
<text text-anchor="start" x="45.44" y="-755.5" font-family="Times,serif" font-size="14.00">+ GameArrowKeyListener(Board) : </text>
<polyline fill="none" stroke="black" points="37.44,-747.3 258.43,-747.3"/>
<text text-anchor="start" x="45.44" y="-730.7" font-family="Times,serif" font-size="14.00">+ keyPressed(KeyEvent) : void</text>
</g>
<!-- GameMainMenuButtonListener -->
<g id="node5" class="node">
<title>GameMainMenuButtonListener</title>
<polygon fill="none" stroke="black" points="151.71,-114.5 151.71,-188.9 420.16,-188.9 420.16,-114.5 151.71,-114.5"/>
<text text-anchor="middle" x="285.94" y="-172.3" font-family="Times,serif" font-size="14.00">GameMainMenuButtonListener</text>
<polyline fill="none" stroke="black" points="151.71,-164.1 420.16,-164.1"/>
<text text-anchor="start" x="159.71" y="-147.5" font-family="Times,serif" font-size="14.00">+ GameMainMenuButtonListener(JFrame) : </text>
<polyline fill="none" stroke="black" points="151.71,-139.3 420.16,-139.3"/>
<text text-anchor="start" x="159.71" y="-122.7" font-family="Times,serif" font-size="14.00">+ actionPerformed(ActionEvent) : void</text>
</g>
<!-- GameModeFilterButtonActionListener -->
<g id="node6" class="node">
<title>GameModeFilterButtonActionListener</title>
<polygon fill="none" stroke="black" points="759.23,-722.5 759.23,-796.9 1174.64,-796.9 1174.64,-722.5 759.23,-722.5"/>
<text text-anchor="middle" x="966.94" y="-780.3" font-family="Times,serif" font-size="14.00">GameModeFilterButtonActionListener</text>
<polyline fill="none" stroke="black" points="759.23,-772.1 1174.64,-772.1"/>
<text text-anchor="start" x="767.23" y="-755.5" font-family="Times,serif" font-size="14.00">+ GameModeFilterButtonActionListener(GameModeSelectionPanel) : </text>
<polyline fill="none" stroke="black" points="759.23,-747.3 1174.64,-747.3"/>
<text text-anchor="start" x="767.23" y="-730.7" font-family="Times,serif" font-size="14.00">+ actionPerformed(ActionEvent) : void</text>
</g>
<!-- GameModeHoverEffectMouseListener -->
<g id="node7" class="node">
<title>GameModeHoverEffectMouseListener</title>
<polygon fill="none" stroke="black" points="588.67,-551.3 588.67,-676.1 965.2,-676.1 965.2,-551.3 588.67,-551.3"/>
<text text-anchor="middle" x="776.94" y="-659.5" font-family="Times,serif" font-size="14.00">GameModeHoverEffectMouseListener</text>
<polyline fill="none" stroke="black" points="588.67,-651.3 965.2,-651.3"/>
<text text-anchor="start" x="596.67" y="-634.7" font-family="Times,serif" font-size="14.00">+ GameModeHoverEffectMouseListener(Color, Color, Color) : </text>
<polyline fill="none" stroke="black" points="588.67,-626.5 965.2,-626.5"/>
<text text-anchor="start" x="596.67" y="-609.9" font-family="Times,serif" font-size="14.00">+ mouseExited(MouseEvent) : void</text>
<text text-anchor="start" x="596.67" y="-593.1" font-family="Times,serif" font-size="14.00"> + mousePressed(MouseEvent) : void</text>
<text text-anchor="start" x="596.67" y="-576.3" font-family="Times,serif" font-size="14.00"> + mouseReleased(MouseEvent) : void</text>
<text text-anchor="start" x="596.67" y="-559.5" font-family="Times,serif" font-size="14.00"> + mouseEntered(MouseEvent) : void</text>
</g>
<!-- GameModeNextButtonActionListener -->
<g id="node8" class="node">
<title>GameModeNextButtonActionListener</title>
<polygon fill="none" stroke="black" points="303.79,-722.5 303.79,-796.9 716.08,-796.9 716.08,-722.5 303.79,-722.5"/>
<text text-anchor="middle" x="509.94" y="-780.3" font-family="Times,serif" font-size="14.00">GameModeNextButtonActionListener</text>
<polyline fill="none" stroke="black" points="303.79,-772.1 716.08,-772.1"/>
<text text-anchor="start" x="311.79" y="-755.5" font-family="Times,serif" font-size="14.00">+ GameModeNextButtonActionListener(GameModeSelectionPanel) : </text>
<polyline fill="none" stroke="black" points="303.79,-747.3 716.08,-747.3"/>
<text text-anchor="start" x="311.79" y="-730.7" font-family="Times,serif" font-size="14.00">+ actionPerformed(ActionEvent) : void</text>
</g>
<!-- GameModePrevButtonActionListener -->
<g id="node9" class="node">
<title>GameModePrevButtonActionListener</title>
<polygon fill="none" stroke="black" points="474.57,-228.5 474.57,-302.9 885.31,-302.9 885.31,-228.5 474.57,-228.5"/>
<text text-anchor="middle" x="679.94" y="-286.3" font-family="Times,serif" font-size="14.00">GameModePrevButtonActionListener</text>
<polyline fill="none" stroke="black" points="474.57,-278.1 885.31,-278.1"/>
<text text-anchor="start" x="482.57" y="-261.5" font-family="Times,serif" font-size="14.00">+ GameModePrevButtonActionListener(GameModeSelectionPanel) : </text>
<polyline fill="none" stroke="black" points="474.57,-253.3 885.31,-253.3"/>
<text text-anchor="start" x="482.57" y="-236.7" font-family="Times,serif" font-size="14.00">+ actionPerformed(ActionEvent) : void</text>
</g>
<!-- GameMouseClickListener -->
<g id="node10" class="node">
<title>GameMouseClickListener</title>
<polygon fill="none" stroke="black" points="760.16,-0.5 760.16,-74.9 989.72,-74.9 989.72,-0.5 760.16,-0.5"/>
<text text-anchor="middle" x="874.94" y="-58.3" font-family="Times,serif" font-size="14.00">GameMouseClickListener</text>
<polyline fill="none" stroke="black" points="760.16,-50.1 989.72,-50.1"/>
<text text-anchor="start" x="768.16" y="-33.5" font-family="Times,serif" font-size="14.00">+ GameMouseClickListener(Board) : </text>
<polyline fill="none" stroke="black" points="760.16,-25.3 989.72,-25.3"/>
<text text-anchor="start" x="768.16" y="-8.7" font-family="Times,serif" font-size="14.00">+ mousePressed(MouseEvent) : void</text>
</g>
<!-- GameMouseWheelListener -->
<g id="node11" class="node">
<title>GameMouseWheelListener</title>
<polygon fill="none" stroke="black" points="797.67,-114.5 797.67,-188.9 1090.21,-188.9 1090.21,-114.5 797.67,-114.5"/>
<text text-anchor="middle" x="943.94" y="-172.3" font-family="Times,serif" font-size="14.00">GameMouseWheelListener</text>
<polyline fill="none" stroke="black" points="797.67,-164.1 1090.21,-164.1"/>
<text text-anchor="start" x="805.67" y="-147.5" font-family="Times,serif" font-size="14.00">+ GameMouseWheelListener(Board) : </text>
<polyline fill="none" stroke="black" points="797.67,-139.3 1090.21,-139.3"/>
<text text-anchor="start" x="805.67" y="-122.7" font-family="Times,serif" font-size="14.00">+ mouseWheelMoved(MouseWheelEvent) : void</text>
</g>
<!-- GameQuitButtonListener -->
<g id="node12" class="node">
<title>GameQuitButtonListener</title>
<polygon fill="none" stroke="black" points="37.66,-0.5 37.66,-74.9 274.21,-74.9 274.21,-0.5 37.66,-0.5"/>
<text text-anchor="middle" x="155.94" y="-58.3" font-family="Times,serif" font-size="14.00">GameQuitButtonListener</text>
<polyline fill="none" stroke="black" points="37.66,-50.1 274.21,-50.1"/>
<text text-anchor="start" x="45.66" y="-33.5" font-family="Times,serif" font-size="14.00">+ GameQuitButtonListener() : </text>
<polyline fill="none" stroke="black" points="37.66,-25.3 274.21,-25.3"/>
<text text-anchor="start" x="45.66" y="-8.7" font-family="Times,serif" font-size="14.00">+ actionPerformed(ActionEvent) : void</text>
</g>
<!-- GameResumeButtonListener -->
<g id="node13" class="node">
<title>GameResumeButtonListener</title>
<polygon fill="none" stroke="black" points="151.72,-228.5 151.72,-302.9 434.15,-302.9 434.15,-228.5 151.72,-228.5"/>
<text text-anchor="middle" x="292.94" y="-286.3" font-family="Times,serif" font-size="14.00">GameResumeButtonListener</text>
<polyline fill="none" stroke="black" points="151.72,-278.1 434.15,-278.1"/>
<text text-anchor="start" x="159.72" y="-261.5" font-family="Times,serif" font-size="14.00">+ GameResumeButtonListener(EscapeMenu) : </text>
<polyline fill="none" stroke="black" points="151.72,-253.3 434.15,-253.3"/>
<text text-anchor="start" x="159.72" y="-236.7" font-family="Times,serif" font-size="14.00">+ actionPerformed(ActionEvent) : void</text>
</g>
<!-- GameSettingsButtonListener -->
<g id="node14" class="node">
<title>GameSettingsButtonListener</title>
<polygon fill="none" stroke="black" points="170.73,-439.58 170.73,-513.98 501.39,-513.98 501.39,-439.58 170.73,-439.58"/>
<text text-anchor="middle" x="336.06" y="-497.38" font-family="Times,serif" font-size="14.00">GameSettingsButtonListener</text>
<polyline fill="none" stroke="black" points="170.73,-489.18 501.39,-489.18"/>
<text text-anchor="start" x="178.73" y="-472.58" font-family="Times,serif" font-size="14.00">+ GameSettingsButtonListener(JFrame, EscapeMenu) : </text>
<polyline fill="none" stroke="black" points="170.73,-464.38 501.39,-464.38"/>
<text text-anchor="start" x="178.73" y="-447.78" font-family="Times,serif" font-size="14.00">+ actionPerformed(ActionEvent) : void</text>
</g>
<!-- GameSettingsWindowListener -->
<g id="node15" class="node">
<title>GameSettingsWindowListener</title>
<polygon fill="none" stroke="black" points="513.19,-342.63 513.19,-517.83 782.02,-517.83 782.02,-342.63 513.19,-342.63"/>
<text text-anchor="middle" x="647.61" y="-501.23" font-family="Times,serif" font-size="14.00">GameSettingsWindowListener</text>
<polyline fill="none" stroke="black" points="513.19,-493.03 782.02,-493.03"/>
<text text-anchor="start" x="521.19" y="-476.43" font-family="Times,serif" font-size="14.00">+ GameSettingsWindowListener(JFrame) : </text>
<polyline fill="none" stroke="black" points="513.19,-468.23 782.02,-468.23"/>
<text text-anchor="start" x="521.19" y="-451.63" font-family="Times,serif" font-size="14.00">+ windowIconified(WindowEvent) : void</text>
<text text-anchor="start" x="521.19" y="-434.83" font-family="Times,serif" font-size="14.00"> + windowDeactivated(WindowEvent) : void</text>
<text text-anchor="start" x="521.19" y="-418.03" font-family="Times,serif" font-size="14.00"> + windowDeiconified(WindowEvent) : void</text>
<text text-anchor="start" x="521.19" y="-401.23" font-family="Times,serif" font-size="14.00"> + windowOpened(WindowEvent) : void</text>
<text text-anchor="start" x="521.19" y="-384.43" font-family="Times,serif" font-size="14.00"> + windowClosing(WindowEvent) : void</text>
<text text-anchor="start" x="521.19" y="-367.63" font-family="Times,serif" font-size="14.00"> + windowClosed(WindowEvent) : void</text>
<text text-anchor="start" x="521.19" y="-350.83" font-family="Times,serif" font-size="14.00"> + windowActivated(WindowEvent) : void</text>
</g>
<!-- GameSettingsButtonListener&#45;&gt;GameSettingsWindowListener -->
<g id="edge1" class="edge">
<title>GameSettingsButtonListener-&gt;GameSettingsWindowListener</title>
<path fill="none" stroke="#595959" stroke-dasharray="5,2" d="M501.87,-476.78C501.87,-476.78 502.95,-476.78 502.95,-476.78"/>
<polygon fill="#595959" stroke="#595959" points="511.52,-476.78 501.52,-481.28 507.73,-476.78 501.52,-476.78 501.52,-476.78 501.52,-476.78 507.73,-476.78 501.52,-472.28 511.52,-476.78"/>
<text text-anchor="middle" x="526.11" y="-480.98" font-family="Times,serif" font-size="14.00">«create»</text>
</g>
<!-- GameSpaceKeyListener -->
<g id="node16" class="node">
<title>GameSpaceKeyListener</title>
<polygon fill="none" stroke="black" points="0,-912.5 0,-986.9 217.87,-986.9 217.87,-912.5 0,-912.5"/>
<text text-anchor="middle" x="108.94" y="-970.3" font-family="Times,serif" font-size="14.00">GameSpaceKeyListener</text>
<polyline fill="none" stroke="black" points="0,-962.1 217.87,-962.1"/>
<text text-anchor="start" x="8" y="-945.5" font-family="Times,serif" font-size="14.00">+ GameSpaceKeyListener(Board) : </text>
<polyline fill="none" stroke="black" points="0,-937.3 217.87,-937.3"/>
<text text-anchor="start" x="8" y="-920.7" font-family="Times,serif" font-size="14.00">+ keyPressed(KeyEvent) : void</text>
</g>
<!-- GameZoomListener -->
<g id="node17" class="node">
<title>GameZoomListener</title>
<polygon fill="none" stroke="black" points="189.67,-342.5 189.67,-416.9 482.21,-416.9 482.21,-342.5 189.67,-342.5"/>
<text text-anchor="middle" x="335.94" y="-400.3" font-family="Times,serif" font-size="14.00">GameZoomListener</text>
<polyline fill="none" stroke="black" points="189.67,-392.1 482.21,-392.1"/>
<text text-anchor="start" x="197.67" y="-375.5" font-family="Times,serif" font-size="14.00">+ GameZoomListener(Board) : </text>
<polyline fill="none" stroke="black" points="189.67,-367.3 482.21,-367.3"/>
<text text-anchor="start" x="197.67" y="-350.7" font-family="Times,serif" font-size="14.00">+ mouseWheelMoved(MouseWheelEvent) : void</text>
</g>
<!-- MusicVolumeChangeListener -->
<g id="node18" class="node">
<title>MusicVolumeChangeListener</title>
<polygon fill="none" stroke="black" points="265.32,-836.5 265.32,-910.9 520.55,-910.9 520.55,-836.5 265.32,-836.5"/>
<text text-anchor="middle" x="392.94" y="-894.3" font-family="Times,serif" font-size="14.00">MusicVolumeChangeListener</text>
<polyline fill="none" stroke="black" points="265.32,-886.1 520.55,-886.1"/>
<text text-anchor="start" x="273.32" y="-869.5" font-family="Times,serif" font-size="14.00">+ MusicVolumeChangeListener(JSlider) : </text>
<polyline fill="none" stroke="black" points="265.32,-861.3 520.55,-861.3"/>
<text text-anchor="start" x="273.32" y="-844.7" font-family="Times,serif" font-size="14.00">+ stateChanged(ChangeEvent) : void</text>
</g>
<!-- MuteCheckBoxListener -->
<g id="node19" class="node">
<title>MuteCheckBoxListener</title>
<polygon fill="none" stroke="black" points="930.66,-228.5 930.66,-302.9 1167.21,-302.9 1167.21,-228.5 930.66,-228.5"/>
<text text-anchor="middle" x="1048.94" y="-286.3" font-family="Times,serif" font-size="14.00">MuteCheckBoxListener</text>
<polyline fill="none" stroke="black" points="930.66,-278.1 1167.21,-278.1"/>
<text text-anchor="start" x="938.66" y="-261.5" font-family="Times,serif" font-size="14.00">+ MuteCheckBoxListener(String) : </text>
<polyline fill="none" stroke="black" points="930.66,-253.3 1167.21,-253.3"/>
<text text-anchor="start" x="938.66" y="-236.7" font-family="Times,serif" font-size="14.00">+ actionPerformed(ActionEvent) : void</text>
</g>
<!-- SoundsVolumeChangeListener -->
<g id="node20" class="node">
<title>SoundsVolumeChangeListener</title>
<polygon fill="none" stroke="black" points="569.2,-836.5 569.2,-910.9 830.67,-910.9 830.67,-836.5 569.2,-836.5"/>
<text text-anchor="middle" x="699.94" y="-894.3" font-family="Times,serif" font-size="14.00">SoundsVolumeChangeListener</text>
<polyline fill="none" stroke="black" points="569.2,-886.1 830.67,-886.1"/>
<text text-anchor="start" x="577.2" y="-869.5" font-family="Times,serif" font-size="14.00">+ SoundsVolumeChangeListener(JSlider) : </text>
<polyline fill="none" stroke="black" points="569.2,-861.3 830.67,-861.3"/>
<text text-anchor="start" x="577.2" y="-844.7" font-family="Times,serif" font-size="14.00">+ stateChanged(ChangeEvent) : void</text>
</g>
<!-- TilePanningActionListener -->
<g id="node21" class="node">
<title>TilePanningActionListener</title>
<polygon fill="none" stroke="black" points="817.15,-342.7 817.15,-450.7 1116.72,-450.7 1116.72,-342.7 817.15,-342.7"/>
<text text-anchor="middle" x="966.94" y="-434.1" font-family="Times,serif" font-size="14.00">TilePanningActionListener</text>
<polyline fill="none" stroke="black" points="817.15,-425.9 1116.72,-425.9"/>
<text text-anchor="start" x="825.15" y="-409.3" font-family="Times,serif" font-size="14.00">+ TilePanningActionListener(Board, int, int, int) : </text>
<polyline fill="none" stroke="black" points="817.15,-401.1 1116.72,-401.1"/>
<text text-anchor="start" x="825.15" y="-384.5" font-family="Times,serif" font-size="14.00">- stopAnimation() : void</text>
<text text-anchor="start" x="825.15" y="-367.7" font-family="Times,serif" font-size="14.00"> + actionPerformed(ActionEvent) : void</text>
<text text-anchor="start" x="825.15" y="-350.9" font-family="Times,serif" font-size="14.00"> + startAnimation() : void</text>
</g>
<!-- TutorialButtonHoverListener -->
<g id="node22" class="node">
<title>TutorialButtonHoverListener</title>
<polygon fill="none" stroke="black" points="208.42,-589.1 208.42,-680.3 541.45,-680.3 541.45,-589.1 208.42,-589.1"/>
<text text-anchor="middle" x="374.94" y="-663.7" font-family="Times,serif" font-size="14.00">TutorialButtonHoverListener</text>
<polyline fill="none" stroke="black" points="208.42,-655.5 541.45,-655.5"/>
<text text-anchor="start" x="216.42" y="-638.9" font-family="Times,serif" font-size="14.00">+ TutorialButtonHoverListener(JButton, Color, Color) : </text>
<polyline fill="none" stroke="black" points="208.42,-630.7 541.45,-630.7"/>
<text text-anchor="start" x="216.42" y="-614.1" font-family="Times,serif" font-size="14.00">+ mouseEntered(MouseEvent) : void</text>
<text text-anchor="start" x="216.42" y="-597.3" font-family="Times,serif" font-size="14.00"> + mouseExited(MouseEvent) : void</text>
</g>
</g>
</svg>